<svg xmlns="http://www.w3.org/2000/svg" width="142" height="12"><path fill="#CACACA" fill-rule="evenodd" d="M.855 6.874h31.537c.323.69 1.005 1.171 1.805 1.171.798 0 1.481-.481 1.803-1.17 2.404-.003 4.65-.025 7.071.076 3.577.146 6.988 1.318 10.278 2.68 3.105 1.286 5.89 2.863 9.354 2.22 2.86-.53 5.629-2.185 8.09-3.851l.878-.544c3.625-2.267 6.474-4.592 9.802-4.777 3.446-.228 5.849 1.84 5.314 4.505-.641 3.072-3.025 3.485-4.68 3.137.568-.162.994-.672.994-1.304 0-.76-.604-1.379-1.35-1.379-.746 0-1.348.62-1.348 1.379 0 .17.082.466.08.46.043.274.43 1.093 1.978 1.56 2.498.753 5.237-.956 7.52-1.793a45.338 45.338 0 0 1 5.836-1.698c2.915-.65 5.774-.582 8.726-.584.503 0 1.006.004 1.508.006.339.637.992 1.077 1.754 1.077.757 0 1.406-.434 1.746-1.065 1.71.01 3.418.02 5.126.02 3.938-.003 7.875-.022 11.813-.018 3.278.001 6.56.013 9.839.01 1.58-.002 3.164-.038 4.744-.009a.862.862 0 0 0 .927-.867.862.862 0 0 0-.854-.87h-31.484a1.998 1.998 0 0 0-1.857-1.29c-.844 0-1.564.534-1.857 1.29-2.385.003-4.616.022-7.018-.077-2.653-.11-5.36-.723-7.836-1.7-3.929-1.55-7.64-4.128-12.039-3.314-2.861.529-5.629 2.185-8.09 3.852-.295.183-.595.367-.877.543-3.625 2.266-6.474 4.592-9.802 4.778-3.447.228-5.849-1.84-5.313-4.505.613-2.955 2.841-3.454 4.484-3.175-.479.21-.813.696-.813 1.261 0 .761.605 1.378 1.349 1.378S61.34 3.67 61.34 2.91c0-.138-.038-.268-.064-.38a.753.753 0 0 0-.036-.125c-.01-.025-.02-.043-.03-.066-1.765-3.336-6.81-.335-9.189.537a45.51 45.51 0 0 1-5.84 1.7c-2.913.648-5.773.581-8.724.583-.48 0-.963-.004-1.444-.006a1.998 1.998 0 0 0-1.817-1.197c-.806 0-1.493.487-1.812 1.184-1.687-.01-3.374-.02-5.061-.02-3.939.003-7.876.023-11.814.02-3.278-.002-6.557-.015-9.839-.012-1.58.002-3.164.039-4.743.01A.863.863 0 0 0 0 6.004c0 .48.383.87.855.87m84.842.214c.181-3.03-2.967-4.224-7.013-2.295-4.044 1.929-7.333 4.757-10.789 6.52 0 0 2.337.459 4.225-.091 1.89-.553 8.003-5.144 10.251-5.788 2.25-.641 3.326 1.654 3.326 1.654M56.167 5c-.178 3.031 2.969 4.225 7.014 2.296 4.046-1.929 7.336-4.756 10.79-6.52 0 0-2.338-.46-4.225.09-1.889.552-8.004 5.144-10.25 5.787-2.25.643-3.328-1.653-3.328-1.653"/></svg>