<svg xmlns="http://www.w3.org/2000/svg" width="220" height="39"><g fill="none" fill-rule="evenodd"><path fill="#000" d="M7 7.87L4.36 5.125C3.43 6.445 2.125 7.705.535 8.74c-.075.06-.12.06-.165.015L.205 8.62c-.03-.06-.015-.09.03-.15 2.07-1.77 3.6-4.035 4.155-5.97-.135-.285-.495-.615-.87-.825l.18-.315c.03-.045.075-.06.165-.045.525.09 1.32.405 1.62.6.12.06.18.165.18.285 0 .12-.015.24-.03.315A8.934 8.934 0 0 1 4.75 4.51l1.68 1.605.66.27c.24.315.555.81.69 1.095.09.195.12.33.075.42-.075.18-.345.285-.51.24-.09-.03-.24-.165-.345-.27zm1.32 5.73c1.23 0 2.13-.735 2.13-1.95 0-1.215-.9-1.95-2.13-1.95-1.245 0-2.145.735-2.145 1.95 0 1.215.9 1.95 2.145 1.95zm0-4.62c1.89 0 3.24 1.08 3.24 2.67 0 1.665-1.35 2.775-3.24 2.775-1.905 0-3.255-1.11-3.255-2.775 0-1.59 1.35-2.67 3.255-2.67zM9.295.64L9.4.28c.015-.045.06-.075.18-.075.54.015 1.47.21 1.905.39.12.045.18.15.18.3l-.045.78V6.52c0 .765-.135 1.95-.345 2.61h-.63c-.06-.525-.09-1.695-.09-2.265V4.87c-.54.015-1.275.03-1.59.075-.27.03-.675.12-.945.255-.42-.18-.81-.435-1.11-.675-.045-.06-.075-.09-.045-.15l.09-.165c.375.045.84.075 1.215.075.51 0 1.65-.03 2.385-.075V1.405C10.3 1.09 9.82.82 9.295.64zm16.35 6.75l.54-.24c.54.015 1.335.105 1.68.225a.26.26 0 0 1 .195.255.69.69 0 0 1-.315.555 21.561 21.561 0 0 0-1.74-.075c-.51 0-2.385 0-4.275.03v.54c0 .42-.06.975-.165 1.44 1.05-.015 2.01-.045 2.445-.06l.42-.195c.06-.03.165-.03.225 0 .165.075.465.27.585.345.045.06.045.105.015.18l-.165.465-.045 1.71c0 .63-.12 1.62-.3 2.205h-.66c-.06-.51-.09-1.41-.09-1.95v-2.04c-1.17-.03-4.245 0-4.875.045-.36.015-1.02.135-1.335.255a4.744 4.744 0 0 1-1.305-.705.121.121 0 0 1-.045-.135l.105-.21c.45.09 1.05.135 1.47.135.345 0 1.485-.015 2.7-.03-.03-.405-.045-.885-.045-1.23v-.75c-1.605.015-3.045.045-3.375.075-.375.03-1.14.165-1.5.285-.54-.18-1.095-.48-1.47-.795-.045-.03-.06-.075-.045-.135l.105-.21c.495.09 1.2.15 1.665.165.915.015 8.55-.09 9.6-.15zM17.59 5.635l-.03-3.795a2.532 2.532 0 0 0-.945-.465l.075-.36c0-.03.045-.06.165-.06.45-.015 1.26.06 1.635.18.12.03.15.09.15.225l-.015.645-.015.705 5.295-.03V1.3c-.195-.195-.525-.39-.9-.525L23.11.4c.03-.06.06-.075.165-.075.465.03 1.2.165 1.575.315.105.03.15.105.15.225l-.03.66-.03 2.46c0 .405-.075.945-.15 1.29l.225.09c.075.03.12.075.12.15 0 .18-.06.345-.135.405-1.335 0-5.085.015-6.465.03-.045.21-.135.36-.225.465h-.6c-.075-.21-.12-.54-.12-.78zm6.315-2.28L18.61 3.4l-.03 1.89 5.325-.03V3.355zm16.23 4.125l.54-.24c.54.015 1.335.105 1.68.225a.26.26 0 0 1 .195.255c0 .255-.18.48-.315.54a21.561 21.561 0 0 0-1.74-.075c-.51 0-2.4.015-4.29.045v3.255c0 .795-.15 2.265-.345 3.06h-.63c-.045-.66-.09-2.025-.09-2.715V8.245c-1.605.015-3.03.045-3.36.06a8.57 8.57 0 0 0-1.5.3c-.54-.18-1.095-.48-1.47-.795-.045-.03-.06-.075-.045-.135l.105-.21c.495.09 1.2.15 1.665.165.66.015 4.875-.045 7.53-.09.33-1.53.555-3.69.585-5.115-1.245 0-4.5.06-5.235.105a6.61 6.61 0 0 0-1.425.255 4.603 4.603 0 0 1-1.305-.735c-.045-.06-.06-.09-.045-.15l.105-.18c.45.09 1.035.135 1.47.135.795 0 5.295-.045 6.42-.09l.57-.27a.258.258 0 0 1 .255 0c.18.075.51.285.63.375.075.045.075.12.045.195l-.225.48c-.105 1.425-.585 3.495-1.2 4.98.69-.015 1.2-.03 1.425-.045zm8.13-4.545c-1.23 0-2.19.81-2.19 2.1 0 1.26.96 2.07 2.19 2.07 1.245 0 2.19-.81 2.19-2.07 0-1.29-.945-2.1-2.19-2.1zm0 4.98c-1.89 0-3.3-1.23-3.3-2.88 0-1.665 1.41-2.895 3.3-2.895s3.3 1.23 3.3 2.895c0 1.65-1.41 2.88-3.3 2.88zM52.72.64l.105-.36c.015-.045.06-.075.165-.075.555.015 1.5.21 1.92.39.135.045.195.15.195.3l-.045.795v9.795c0 .87-.135 2.28-.36 3.135h-.615c-.06-.63-.09-2.1-.09-2.76V9.925c-1.92.465-5.805.975-7.845 1.08-.285.03-.9.165-1.17.27a6.181 6.181 0 0 1-1.5-.885c-.06-.045-.075-.09-.045-.15l.09-.195c.525.105 1.155.135 1.665.135 2.265-.045 6.6-.435 8.805-.84V1.405c-.27-.315-.75-.585-1.275-.765zm20.265 10.74l.54-.225c.54.015 1.335.105 1.68.225.105.03.195.12.195.24 0 .255-.18.495-.315.555a21.561 21.561 0 0 0-1.74-.075c-1.05-.015-7.92.075-8.715.12a8.57 8.57 0 0 0-1.5.3c-.54-.18-1.095-.48-1.47-.795-.045-.03-.06-.075-.045-.135l.105-.21c.495.09 1.2.15 1.665.15.45 0 2.565-.015 4.695-.045V9.22c-.195-.21-.585-.405-.945-.525l.09-.33c.015-.045.045-.075.15-.075.48.015 1.32.105 1.695.225.12.03.165.12.15.225l-.06.63-.06 2.1c1.8-.03 3.435-.06 3.885-.09zM63.55 6.895v-3.75c-.165-.18-.465-.345-.765-.435l.075-.3c.03-.06.075-.09.165-.09.405 0 1.29.06 1.635.15.555-.015 1.545-.03 1.8-.06l.315-.195c.285-.015.765.015.99.06.105.015.15.075.15.18a.806.806 0 0 1-.15.495.273.273 0 0 1-.165.06l-2.955.075V6.97c0 .15.06.225.225.21.975-.03 2.385-.27 3.285-.57.06-.015.105.015.12.075l.06.255c.015.06-.015.105-.075.135-.885.45-2.28.825-3.285.99-.15.015-.375.045-.465.045-.45 0-.765-.255-.9-.66-.045-.09-.06-.285-.06-.555zm5.235-.165V3.085a1.4 1.4 0 0 0-.615-.465l.09-.33c.015-.045.045-.075.135-.075.39 0 1.17.06 1.515.15.48 0 1.74-.06 2.055-.105l.375-.21c.345 0 .885.03 1.155.075.12.03.165.09.165.18 0 .225-.06.42-.135.495-.045.045-.12.06-.18.06l-3.465.135v3.87c0 .255.09.36.345.36.42 0 1.695-.03 2.04-.075l.39-.225c.33-.015.825.015 1.065.06.12.03.195.105.195.225 0 .255-.09.45-.15.51a.248.248 0 0 1-.18.075l-3.48.09c-.975.015-1.32-.36-1.32-1.155zm23.19-.24l.48-.27c.435-.015 1.05.015 1.32.075.12.03.21.135.21.24.015.27-.075.465-.18.54a.534.534 0 0 1-.285.075l-2.61.045v4.29c0 .87-.135 2.28-.345 3.135h-.63c-.045-.63-.09-2.1-.09-2.76V9.13c-2.115.69-4.92 1.215-6.84 1.365-.195.015-.36.015-.495.015-.51 0-.84-.285-.99-.75-.045-.135-.075-.375-.075-.675V3.79c-.225-.21-.6-.375-.99-.45l.075-.345c.015-.045.06-.075.15-.075.42 0 1.365.06 1.83.135.66 0 2.715-.075 3.24-.12l.405-.24c.36 0 .96.03 1.245.105.135.015.195.09.195.195 0 .24-.075.435-.135.51a.285.285 0 0 1-.195.075l-4.71.15v5.565c0 .195.06.27.255.255 1.875-.03 5.01-.435 7.035-1.02V1.405C89.59 1.09 89.11.82 88.57.64l.12-.36c.015-.045.045-.075.165-.075.54.015 1.485.21 1.92.39.135.045.18.15.18.3l-.045.795v4.845l1.065-.045zm13.86 1.89l.54-.225c.54.015 1.335.105 1.68.225.105.03.195.12.195.24 0 .255-.18.495-.315.555a21.561 21.561 0 0 0-1.74-.075c-1.05-.015-7.92.075-8.715.12a8.57 8.57 0 0 0-1.5.3c-.54-.18-1.095-.48-1.47-.795-.045-.03-.06-.075-.045-.135l.105-.21c.495.09 1.2.15 1.665.15.915.015 8.55-.075 9.6-.15zm-1.95 5.055l.48-.255c.45 0 1.125.045 1.425.105.105.03.195.105.195.21a.867.867 0 0 1-.165.54.317.317 0 0 1-.21.06l-6.48.045c-.945 0-1.275-.36-1.275-1.17v-1.68c-.255-.195-.66-.36-1.065-.45l.075-.33c.015-.06.06-.09.165-.09.495 0 1.35.06 1.725.135.15.045.225.12.225.285l-.03.69v1.575c0 .255.09.375.375.375 1.005.015 3.69 0 4.56-.045zm-6.39-7.26V4.6c-.195-.18-.51-.315-.855-.375l.06-.285c.015-.045.06-.09.15-.09.42 0 1.41.03 1.785.09 1.065 0 4.365-.06 5.01-.105l.24-.075c.045-.375.06-1.35.045-1.74-1.035-.015-3.975.045-4.605.09a7.9 7.9 0 0 0-1.245.225c-.48-.165-.93-.42-1.26-.675-.06-.045-.06-.09-.045-.15l.09-.15c.405.075 1.02.12 1.395.12.825.015 4.815-.045 5.775-.09l.435-.225a.33.33 0 0 1 .24 0c.15.075.45.24.57.33.06.06.06.12.03.195l-.165.36a11.4 11.4 0 0 1-.315 1.725l.3.135c.06.045.075.075.075.135 0 .165-.075.315-.135.36l-6.465.105v1.71c0 .18.06.255.255.255 1.26.015 4.26-.03 5.175-.09l.42-.225c.42-.015 1.05.03 1.32.09.105.015.18.075.18.18 0 .255-.09.42-.15.495a.262.262 0 0 1-.18.06l-7.08.105c-.795 0-1.05-.27-1.05-.915zm23.295.075c0 1.905-1.455 3.24-3.435 3.24-1.995 0-3.465-1.335-3.465-3.24 0-1.89 1.47-3.21 3.465-3.21 1.98 0 3.435 1.32 3.435 3.21zm-1.11 0c0-1.485-1.005-2.385-2.325-2.385-1.32 0-2.325.9-2.325 2.385 0 1.515 1.005 2.4 2.325 2.4 1.32 0 2.325-.885 2.325-2.4zm4.515 8.37h-.63c-.045-.63-.075-2.1-.075-2.76V1.405c-.27-.315-.75-.585-1.29-.765l.12-.36c.015-.045.045-.075.165-.075.555.015 1.485.21 1.92.39.135.045.18.15.18.3l-.03.795v9.795c0 .87-.15 2.28-.36 3.135zm7.14-6.03c1.32 0 2.325-.885 2.325-2.385 0-1.5-1.005-2.4-2.325-2.4-1.32 0-2.325.9-2.325 2.4s1.005 2.385 2.325 2.385zm0-5.61c1.98 0 3.435 1.32 3.435 3.225 0 1.89-1.455 3.225-3.435 3.225-1.995 0-3.465-1.335-3.465-3.225 0-1.905 1.47-3.225 3.465-3.225zm7.98 5.19l.48-.27c.435-.015 1.05.015 1.32.075.12.03.21.135.21.24.015.27-.075.465-.18.54a.534.534 0 0 1-.285.075l-2.61.045v2.61c0 .87-.135 2.28-.345 3.135h-.63c-.045-.63-.09-2.1-.09-2.76V1.405c-.255-.315-.735-.585-1.275-.765l.12-.36c.015-.045.045-.075.165-.075.54.015 1.485.21 1.92.39.135.045.18.15.18.3l-.045.795v2.805l1.065-.045.48-.285c.435-.015 1.05.015 1.32.075.12.045.21.135.21.255.015.27-.075.465-.18.54a.534.534 0 0 1-.285.075l-2.61.045v3.06l1.065-.045zm9.285-5.325l.495-.255a.33.33 0 0 1 .24 0c.18.09.54.27.675.36.06.045.06.12.015.18l-.255.435c-.78 2.7-3.51 5.73-6.81 7.575-.06.045-.105.045-.15.015l-.18-.165c-.045-.045-.06-.075 0-.135 2.865-2.13 4.98-4.89 5.865-7.365-.855 0-2.865.045-3.285.09-.285.015-.84.12-1.125.225a4.785 4.785 0 0 1-1.155-.645c-.045-.045-.045-.09-.045-.12l.105-.195c.39.06.93.09 1.29.09.57 0 3.525-.045 4.32-.09zM151.165.64l.12-.36c.015-.045.045-.075.165-.075.555.015 1.5.21 1.92.39.135.045.195.15.18.3l-.03.795v9.795c0 .87-.135 2.28-.36 3.135h-.63c-.045-.63-.075-2.1-.075-2.76V1.405c-.27-.315-.75-.585-1.29-.765zm20.37 10.785l.54-.24c.54.015 1.335.105 1.68.225.105.045.195.12.195.255a.69.69 0 0 1-.315.555 21.561 21.561 0 0 0-1.74-.075c-1.05-.015-7.92.06-8.715.12-.375.03-1.14.165-1.5.285a4.459 4.459 0 0 1-1.47-.795c-.045-.03-.06-.075-.045-.12l.105-.225c.495.09 1.2.15 1.665.165.45 0 2.49-.015 4.59-.045V8.305c-.9 0-1.71.015-2.235.03-.06.255-.15.435-.255.54h-.6c-.09-.225-.12-.57-.12-.825l-.09-5.265c-.21-.195-.615-.39-.975-.495l.075-.36c.015-.03.045-.06.18-.06.465-.015 1.305.075 1.695.18.12.03.165.105.165.24l-.015.66-.015 1.38 5.67-.045V2.26c-.225-.24-.63-.45-1.05-.6l.12-.36c.015-.06.06-.075.165-.075.495.03 1.335.18 1.725.345.105.045.165.12.165.225l-.03.675-.045 3.825c0 .42-.075.96-.165 1.32l.345.09c.06.015.105.075.105.15 0 .165-.06.36-.135.42-.735 0-2.19.015-3.63.015v3.225c1.83-.03 3.51-.06 3.96-.09zm-1.53-6.465l-5.67.06-.015 2.64 5.685-.06V4.96zm14.13-4.32l.12-.36c.015-.045.045-.075.165-.075.555.015 1.5.21 1.92.39.135.045.195.15.18.3l-.03.795v9.795c0 .87-.135 2.28-.36 3.135h-.63c-.045-.63-.075-2.1-.075-2.76V6.505c-.36 0-.78 0-.96.03-.285.03-.69.12-.96.225a4.1 4.1 0 0 1-1.08-.585c-.045-.045-.06-.09-.045-.135l.09-.165c.36.03.81.045 1.2.045.405 0 1.185-.015 1.755-.06V1.405c-.27-.315-.75-.585-1.29-.765zm-.855 8.82l.06.225c.015.06-.03.12-.09.135-1.47.555-3.885.99-5.28 1.08-.165 0-.375.015-.525.015-.6-.015-.855-.165-1.065-.645-.03-.09-.06-.375-.06-.735v-2.67c-.225-.18-.555-.315-.9-.39l.06-.315c.015-.045.06-.075.15-.075.42 0 1.395.015 1.815.06.705 0 2.535-.045 2.955-.075l.255-.075c.03-.585.045-2.22.015-2.79-.6 0-2.37.045-2.76.075-.285.015-.78.12-1.14.225-.435-.165-.825-.42-1.14-.645-.06-.06-.06-.105-.045-.15l.105-.195c.375.075.93.12 1.29.12.555 0 3.015-.045 3.72-.09l.465-.24c.06-.03.18-.03.24 0 .165.09.48.27.6.36.075.06.075.105.045.195l-.165.405c-.03.75-.18 2.085-.315 2.745l.285.15c.06.03.09.075.09.135 0 .165-.075.33-.135.405l-4.395.105v2.91c0 .18.075.27.27.27 1.545 0 4.11-.285 5.46-.6.075-.015.12 0 .135.075zm15.99-6.615l.495-.24c.075-.03.18-.03.255 0 .165.075.525.255.675.345.045.045.045.12.015.195l-.27.42c-.78 2.685-3.48 5.715-6.78 7.56-.045.045-.09.045-.135.015l-.18-.165c-.045-.045-.06-.075 0-.135 2.85-2.115 4.95-4.875 5.835-7.335-.87 0-2.835.03-3.255.075-.3.015-.84.12-1.125.225-.405-.15-.84-.39-1.155-.63-.045-.045-.045-.09-.045-.135l.105-.195c.39.075.93.105 1.29.105.57 0 3.45-.06 4.275-.105zm5.745 3.84l.48-.285c.435-.015 1.05.015 1.32.075.12.03.21.135.21.24.015.27-.075.48-.18.54-.06.06-.18.075-.285.075l-2.61.045v4.11c0 .87-.135 2.28-.345 3.135h-.63c-.045-.63-.09-2.1-.09-2.76V1.405c-.255-.315-.735-.585-1.275-.765l.12-.36c.015-.045.045-.075.165-.075.54.015 1.485.21 1.92.39.135.045.18.15.18.3l-.045.795v5.04l1.065-.045zm9.285-3.84l.495-.255a.33.33 0 0 1 .24 0c.18.09.54.27.675.36.06.045.06.12.015.18l-.255.435c-.78 2.7-3.51 5.73-6.81 7.575-.06.045-.105.045-.15.015l-.18-.165c-.045-.045-.06-.075 0-.135 2.865-2.13 4.98-4.89 5.865-7.365-.855 0-2.865.045-3.285.09-.285.015-.84.12-1.125.225a4.785 4.785 0 0 1-1.155-.645c-.045-.045-.045-.09-.045-.12l.105-.195c.39.06.93.09 1.29.09.57 0 3.525-.045 4.32-.09zM216.865.64l.12-.36c.015-.045.045-.075.165-.075.555.015 1.5.21 1.92.39.135.045.195.15.18.3l-.03.795v9.795c0 .87-.135 2.28-.36 3.135h-.63c-.045-.63-.075-2.1-.075-2.76V1.405c-.27-.315-.75-.585-1.29-.765zM54.28 26.29v.525l-.945.18-2.37 7.11h-.51c-1.29-3.435-1.785-4.86-2.19-6.135l-2.235 6.135h-.495l-2.61-7.14-.975-.15v-.525h3.585v.525l-1.32.165 1.83 5.46 1.965-5.445-1.245-.18v-.525H50.2v.525l-1.26.18 2.01 5.445 1.65-5.43-1.305-.195v-.525h2.985zm12.6 0v.525l-.945.18-2.37 7.11h-.51c-1.29-3.435-1.785-4.86-2.19-6.135l-2.235 6.135h-.495l-2.61-7.14-.975-.15v-.525h3.585v.525l-1.32.165 1.83 5.46 1.965-5.445-1.245-.18v-.525H62.8v.525l-1.26.18 2.01 5.445 1.65-5.43-1.305-.195v-.525h2.985zm12.6 0v.525l-.945.18-2.37 7.11h-.51c-1.29-3.435-1.785-4.86-2.19-6.135l-2.235 6.135h-.495l-2.61-7.14-.975-.15v-.525h3.585v.525l-1.32.165 1.83 5.46 1.965-5.445-1.245-.18v-.525H75.4v.525l-1.26.18 2.01 5.445 1.65-5.43-1.305-.195v-.525h2.985zm1.05 7.905a.98.98 0 0 1-.99-.99c0-.555.42-1.02.99-1.02.57 0 .99.465.99 1.02 0 .54-.42.99-.99.99zm5.775-4.77l.585.21c1.59.585 2.19 1.305 2.19 2.31 0 1.185-1.035 2.265-3.075 2.265-.9 0-1.605-.21-2.4-.585l-.06-1.755h.72l.33 1.455c.405.18.855.285 1.41.285 1.335 0 1.965-.555 1.965-1.365 0-.735-.465-1.11-1.56-1.515l-.75-.285c-1.2-.435-1.98-1.065-1.98-2.175 0-1.17.975-2.19 2.745-2.19.87 0 1.53.225 2.25.645l-.06 1.62h-.66l-.27-1.335a2.552 2.552 0 0 0-1.26-.33c-1.095 0-1.65.51-1.65 1.245 0 .765.42 1.08 1.53 1.5zm6.345-1.59v4.65c.705.69 1.425.96 2.085.96 1.245 0 2.325-.975 2.325-3.3 0-2.175-.93-3.315-2.25-3.315-.57 0-1.23.15-2.16 1.005zm-.045-3.495v2.985c.795-.885 1.68-1.245 2.55-1.245 1.785 0 3.12 1.515 3.12 3.975 0 2.475-1.365 4.155-3.315 4.155-.765 0-1.59-.27-2.34-1.185l-.12 1.125-2.31-.15v-.48l1.29-.195c.015-.825.03-1.98.03-2.745v-7.455l-1.365-.135v-.465l2.295-.63.225.135-.06 2.31zm13.455 7.8l.315.15c-.51 1.2-1.5 1.92-2.97 1.92-2.19 0-3.63-1.575-3.63-4.065 0-2.55 1.785-4.065 3.735-4.065 1.38 0 2.535.81 2.82 1.995-.06.375-.3.555-.66.555-.45 0-.66-.27-.765-.645l-.33-1.125c-.36-.12-.705-.18-1.02-.18-1.515 0-2.595 1.245-2.595 3.36 0 2.1 1.14 3.33 2.76 3.33.945 0 1.8-.435 2.34-1.23zm8.715 1.2l1.155.18V34l-2.13.135-.12-1.5c-.84 1.035-1.875 1.575-2.925 1.575-1.35 0-2.145-.765-2.13-2.97l.045-4.17-1.245-.21v-.48l2.25-.195.15.165-.075 2.28v2.52c0 1.56.48 2.1 1.455 2.1.855 0 1.68-.405 2.445-1.2l.03-4.98-1.23-.21v-.48l2.22-.195.165.165-.06 2.28v4.71zm4.83-.015l1.35.195V34h-3.945v-.48l1.395-.195c.015-.885.03-1.86.03-2.745v-7.47l-1.365-.12v-.465l2.325-.63.225.135-.045 2.31v6.24c0 .885.015 1.86.03 2.745zm6.705-.24l.3.375c-.42.48-1.035.75-1.8.75-1.14 0-1.77-.615-1.77-1.89 0-.375.015-.72.015-1.305V26.98h-1.47v-.555l1.53-.18.36-2.22h.825l-.09 2.265h2.25v.69h-2.265v5.28c0 .885.36 1.26.975 1.26.39 0 .72-.135 1.14-.435zm8.22.255l1.155.18V34l-2.13.135-.12-1.5c-.84 1.035-1.875 1.575-2.925 1.575-1.35 0-2.145-.765-2.13-2.97l.045-4.17-1.245-.21v-.48l2.25-.195.15.165-.075 2.28v2.52c0 1.56.48 2.1 1.455 2.1.855 0 1.68-.405 2.445-1.2l.03-4.98-1.23-.21v-.48l2.22-.195.165.165-.06 2.28v4.71zm4.74-7.095l.15 1.965c.54-1.32 1.5-2.13 2.445-2.13.48 0 .975.21 1.14.54 0 .645-.255 1.02-.84 1.02-.375 0-.66-.18-.96-.435l-.21-.18c-.705.465-1.185 1.155-1.56 2.19v1.365c0 .765.015 1.905.03 2.745l1.38.195V34h-3.825v-.48l1.23-.18c.03-.84.045-1.995.045-2.76v-.825c0-.96-.03-1.575-.06-2.28l-1.335-.105v-.48l2.16-.795.21.15zm5.64 3.24h3.51c.66 0 .81-.33.81-.81 0-1.05-.795-1.995-1.95-1.995-1.095 0-2.19.9-2.37 2.805zm5.34.585l-5.355-.015c.015 2.22 1.185 3.315 2.775 3.315 1.065 0 1.77-.465 2.355-1.17l.315.24c-.615 1.08-1.65 1.77-3.045 1.77-2.1 0-3.615-1.455-3.615-4.02 0-2.505 1.695-4.11 3.675-4.11 1.74 0 3 1.185 3 3.06 0 .39-.03.705-.105.93zm2.91 4.125a.98.98 0 0 1-.99-.99c0-.555.42-1.02.99-1.02.57 0 .99.465.99 1.02 0 .54-.42.99-.99.99zm6.42.015c-1.86 0-3.69-1.32-3.69-4.035 0-2.73 1.83-4.095 3.69-4.095 1.815 0 3.675 1.365 3.675 4.095 0 2.715-1.83 4.035-3.675 4.035zm0-.6c1.5 0 2.415-1.185 2.415-3.435 0-2.235-.915-3.495-2.415-3.495-1.515 0-2.415 1.26-2.415 3.495 0 2.25.9 3.435 2.415 3.435zm7.41-7.365l.15 1.965c.54-1.32 1.5-2.13 2.445-2.13.48 0 .975.21 1.14.54 0 .645-.255 1.02-.84 1.02-.375 0-.66-.18-.96-.435l-.21-.18c-.705.465-1.185 1.155-1.56 2.19v1.365c0 .765.015 1.905.03 2.745l1.38.195V34h-3.825v-.48l1.23-.18c.03-.84.045-1.995.045-2.76v-.825c0-.96-.03-1.575-.06-2.28l-1.335-.105v-.48l2.16-.795.21.15zm7.515 4.65c1.11 0 1.785-.9 1.785-2.175 0-1.245-.645-2.1-1.74-2.1s-1.785.87-1.785 2.145.66 2.13 1.74 2.13zm1.365 3.3h-1.92c-.3 0-.555-.015-.795-.045-.51.495-.75.93-.75 1.545 0 1.11.885 1.62 2.25 1.62 1.875 0 2.865-.81 2.865-1.8 0-.75-.45-1.32-1.65-1.32zm2.76-7.935v.885l-1.71-.015c.315.42.48.96.48 1.62 0 1.71-1.215 2.685-2.865 2.685-.465 0-.885-.075-1.26-.21-.33.42-.51.75-.51 1.155 0 .465.255.795 1.095.795h2.205c1.665 0 2.475.705 2.475 1.995 0 1.395-1.305 2.76-3.9 2.76-2.28 0-3.36-.825-3.36-2.04 0-.72.45-1.305 1.575-1.845-.66-.18-1.05-.585-1.05-1.2 0-.54.3-1.065 1.095-1.785-.765-.435-1.245-1.215-1.245-2.31 0-1.695 1.23-2.67 2.895-2.67.78 0 1.455.21 1.965.6l1.86-.585.255.165z"/><path stroke="#2C4997" stroke-opacity=".281" stroke-width="6" d="M40 35.201h139"/></g></svg>