<svg xmlns="http://www.w3.org/2000/svg" width="72" height="14"><path fill="#EAEAEA" fill-rule="evenodd" d="M6.788 1.438c-.392.028-.77.126-.98.252A8.372 8.372 0 0 1 4.632.878L4.87.514c.616.21 1.778.168 2.17.168.294 0 .938-.014 1.526-.056l-.14.84a10.956 10.956 0 0 0-1.638-.028zm-4.872 5.53l-.14-.336c2.002-.49 4.074-2.31 4.396-3.304.112-.322.014-.476-.154-.56-.812.098-1.162.574-1.358.952-.868-.294-1.624-.7-2.338-1.162l.224-.434c.686.224 1.33.28 2.142.294 1.176.014 2.674 0 3.542-.056.672-.042 1.064-.392 1.19-.882l2.002.378-.182 1.05a15.61 15.61 0 0 0-2.324-.196c-.308 0-.868 0-1.414.014l1.064.35a4.76 4.76 0 0 1-.98 1.456c.868.35 1.302.504 1.624.56.434.07.91-.098 1.19-.42l1.75 1.008-.49.896-4.368-1.75c-1.414 1.246-3.5 1.876-5.376 2.142zm9.618-.182l2.408.35-.168 1.064a25.957 25.957 0 0 0-2.744-.154c-.84 0-1.806.014-2.772.028v1.778c0 2.576-.224 3.15-.224 3.15H6.27S6.2 12.134 6.2 11V8.13l-1.302.042c-.924.028-1.218.56-1.428.952-.868-.196-2.324-.826-3.038-1.288l.224-.434c.686.224 1.96.42 2.772.434 1.176.014 5.502-.112 6.916-.168.63-.028 1.064-.392 1.19-.882zm10.36-1.778c-.112 1.568-1.498 2.324-3.15 2.324-1.764 0-3.178-.854-3.178-2.562 0-1.428.994-2.268 2.352-2.492.266-.42.168-.728-.56-.826l.126-.448 2.45.378-.392.896c1.204.196 2.128.868 2.324 2.03.462.056.98.056 1.456.014l.728-.056v-2.24c0-.784-.742-.966-1.372-1.064L22.79.5l3.374.406c-.056.616-.07 1.246-.07 1.834v2.268c-.014 2.548-.266 2.982-.266 2.982h-1.736s-.042-.7-.042-2.198V4.644l-.504.042c-.448.028-.826.294-.938.602a5.02 5.02 0 0 1-.714-.28zm-4.438-.238c0 1.484.42 2.254 1.288 2.254.854 0 1.274-.77 1.274-2.254 0-1.498-.392-2.24-1.274-2.24-.84 0-1.288.742-1.288 2.24zm6.846 3.752l1.904.448c-.056.308-.112.56-.126.91v.882c0 1.512-.266 2.156-.252 2.156h-1.722s-.056-.686-.056-1.904v-1.68l-3.024.056c-.826.014-1.106.602-1.232.812-.826-.224-1.764-.56-2.492-.924l.154-.406c.784.168 1.722.21 2.814.21.756 0 2.548-.028 3.276-.056.294-.014.574-.126.756-.504zM43.93 4.028l1.862.224-.154 1.078-2.842.014c-.042 2.072-.252 2.45-.252 2.45h-1.736s-.014-.504-.028-1.596a28.784 28.784 0 0 1-4.648 1.33c-1.274.238-2.128.042-2.128-1.05V3.552c0-.784-.35-.966-1.33-1.064l.07-.462 3.304.196v4.34c0 .35.196.406.448.378.98-.098 3.122-.686 4.284-1.12V2.026c0-.784-.742-.966-1.386-1.064L39.506.5l3.388.406c-.056.63-.084 1.246-.084 1.834v2.184c.518-.07.966-.28 1.12-.896zm-.966 4.676l-.448 3.024.63.154-.112.616-5.516.056c-.042.21-.098.448-.168.658h-1.652l-.252-3.206c-.056-.728-.49-.91-1.148-.91l.07-.49 2.898.056c.07.084.252.224.574.224.49 0 2.254-.028 2.436-.042.42-.028.686-.112.826-.392l1.862.252zm-2.254 3.01l.098-2.548-3.374.056.098 3.01 2.646-.042c.336-.014.518-.14.532-.476zM54.444.5l3.374.406a20.562 20.562 0 0 0-.084 1.834v6.174c-.014 3.01-.336 4.004-.336 4.004h-1.652s-.042-.77-.042-2.646V2.026c0-.784-.742-.966-1.372-1.064L54.444.5zm-7.378 10.164l-.266-.308c2.66-1.61 4.606-4.634 4.914-7.378l-.882.084c-.714.07-.994.644-1.162.924-.742-.224-1.708-.658-2.31-1.036l.196-.42c.756.224 1.82.252 2.534.224.434-.014.798-.056 1.176-.084.336-.028.672-.14.84-.406l2.226.532c-1.302 4.032-3.794 6.244-7.266 7.868zM68.444.5l3.374.406a20.562 20.562 0 0 0-.084 1.834v6.174c-.014 3.01-.336 4.004-.336 4.004h-1.652s-.042-.77-.042-2.646V2.026c0-.784-.742-.966-1.372-1.064L68.444.5zm-7.378 10.164l-.266-.308c2.66-1.61 4.606-4.634 4.914-7.378l-.882.084c-.714.07-.994.644-1.162.924-.742-.224-1.708-.658-2.31-1.036l.196-.42c.756.224 1.82.252 2.534.224.434-.014.798-.056 1.176-.084.336-.028.672-.14.84-.406l2.226.532c-1.302 4.032-3.794 6.244-7.266 7.868z"/></svg>