<svg xmlns="http://www.w3.org/2000/svg" width="103" height="13"><path fill="#EAEAEA" fill-rule="evenodd" d="M7.984.5l3.388.406a20.562 20.562 0 0 0-.084 1.834v6.174c-.014 3.01-.35 4.004-.35 4.004H9.3s-.042-.77-.042-2.646V2.026c0-.784-.742-.966-1.372-1.064L7.984.5zM5.408 2.208l-.406.91c1.582.252 2.534 1.302 2.534 3.206 0 2.212-1.288 3.332-3.374 3.332-2.086 0-3.388-1.12-3.388-3.332 0-1.932.994-2.982 2.618-3.22.266-.42.168-.728-.56-.826l.126-.448 2.45.378zM4.162 9.334c1.036 0 1.47-1.176 1.47-2.968 0-1.778-.448-2.982-1.47-2.982-1.05 0-1.47 1.204-1.47 2.982 0 1.792.42 2.968 1.47 2.968zm20.216-4.018v2.408c.56-.042.966-.224 1.134-.896l1.848.21-.154 1.092-2.828.014v.77c0 3.01-.322 4.004-.322 4.004h-1.638s-.056-.77-.056-2.646l-.014-8.246c0-.784-.742-.966-1.372-1.064L21.088.5l3.374.406a20.562 20.562 0 0 0-.084 1.834v2.156c.56-.028.966-.224 1.134-.896l1.848.224-.154 1.078-2.828.014zm-5.684-3.108l-.406.896c1.61.252 2.52 1.302 2.52 3.22 0 2.212-1.232 3.332-3.332 3.332-2.1 0-3.346-1.12-3.346-3.332 0-1.932.938-2.968 2.548-3.22.266-.42.168-.728-.56-.826l.126-.448 2.45.378zm-1.218 7.126c1.036 0 1.428-1.176 1.428-2.968 0-1.778-.406-2.982-1.428-2.982-1.05 0-1.428 1.204-1.428 2.982 0 1.792.378 2.968 1.428 2.968zM35.984.5l3.374.406a20.562 20.562 0 0 0-.084 1.834v6.174c-.014 3.01-.336 4.004-.336 4.004h-1.652s-.042-.77-.042-2.646V2.026c0-.784-.742-.966-1.372-1.064L35.984.5zm-7.378 10.164l-.266-.308c2.66-1.61 4.606-4.634 4.914-7.378l-.882.084c-.714.07-.994.644-1.162.924-.742-.224-1.708-.658-2.31-1.036l.196-.42c.756.224 1.82.252 2.534.224.434-.014.798-.056 1.176-.084.336-.028.672-.14.84-.406l2.226.532c-1.302 4.032-3.794 6.244-7.266 7.868zm27.846-4.41l2.296.336-.154 1.036c-.91-.098-1.862-.14-2.744-.14-1.862 0-5.124.014-6.398.112-.714.056-1.064.518-1.302.91-.826-.21-2.282-.84-2.898-1.246l.224-.448c.686.252 1.848.434 2.772.434.336 0 1.47-.014 2.744-.042V5.4h-.756c-.042.21-.098.406-.168.602h-1.722l-.238-3.094c-.056-.77-.686-.938-1.19-.952l.098-.49 3.052.238.112.126s2.842-.014 3.066-.028c.392-.028.714-.21.868-.49l2.226.574-.798 2.674.686.168-.112.63-3.094.028v1.778c.91-.014 1.722-.042 2.184-.056.686-.028 1.148-.35 1.246-.854zm-6.258-4.102l.07 2.94 2.954-.028c.35 0 .504-.154.518-.476l.112-2.478-3.654.042zm3.29 6.86c.294-.014.644-.126.826-.504l1.834.448c-.07.308-.126.56-.14.91v.896c0 1.512-.266 2.156-.252 2.156H54.03s-.056-.686-.056-1.918V9.334l-2.604.056c-.84.014-1.12.602-1.232.812-.826-.196-1.82-.56-2.52-.896l.182-.448c.756.182 1.722.21 2.8.21.77 0 2.156-.028 2.884-.056zm16.968-2.478l2.296.336-.154 1.036c-.91-.098-1.862-.14-2.744-.14-1.862 0-5.124.014-6.398.112-.714.056-1.064.518-1.302.91-.826-.21-2.282-.84-2.898-1.246l.224-.448c.686.252 1.848.434 2.772.434.336 0 1.47-.014 2.744-.042V6.184c-.616 0-1.204.014-1.666.014-.756 0-1.316-.126-1.316-.938v-.672c0-.616-.462-.812-.966-.826l.07-.406 2.478.126c.154.112.392.224.77.224l2.772-.07c.322-.014.476-.098.504-.462l.098-1.414s-2.282.056-2.828.084c-.616.028-1.022.518-1.176.784a13.758 13.758 0 0 1-2.478-.966l.21-.434c.714.224 1.694.322 2.758.308.84-.014 2.156-.042 3.024-.084.28-.014.644-.14.826-.434l1.932.35-.49 1.82.574.14-.112.56-5.936.154V5.4c0 .35.112.448.616.448.588 0 1.862-.014 2.674-.098.406-.042.77-.392.868-.854l2.17.21-.112.924c.014 0-1.512.056-3.234.098v1.316c.91-.014 1.722-.042 2.184-.056.686-.028 1.148-.35 1.246-.854zm-2.968 2.758c.294-.014.644-.126.826-.504l1.834.448c-.07.308-.126.56-.14.91v.616c0 1.512-.266 2.156-.252 2.156H68.03s-.056-.686-.056-1.918V9.614l-2.604.056c-.84.014-1.12.602-1.232.812-.826-.196-1.82-.56-2.52-.896l.182-.448c.756.182 1.722.21 2.8.21.77 0 2.156-.028 2.884-.056zm20.51.364l2.408.364-.168 1.05a25.957 25.957 0 0 0-2.744-.154c-1.862 0-4.34.07-6.132.126-.924.028-1.218.56-1.428.966-.868-.21-2.324-.826-3.038-1.288l.224-.448c.686.238 1.96.434 2.772.448.504 0 1.596-.014 2.786-.042V7.934l-.882.014c-.056.224-.14.448-.21.602h-1.554l-.238-5.012c-.028-.728-.644-.854-1.106-.854l.112-.49 3.038.224v2.366l3.626-.056V2.936c0-.728-.644-.84-1.106-.854l.112-.49 3.094.224-.168 5.334.686.168-.112.56-3.262.042v2.702l2.1-.07c.63-.028 1.064-.406 1.19-.896zM85.46 5.05l-3.626.056v2.52l3.122-.028c.336 0 .504-.14.504-.504V5.05zM99.264.5l3.374.406a20.562 20.562 0 0 0-.084 1.834v6.174c-.014 3.01-.336 4.004-.336 4.004h-1.652s-.042-.77-.042-2.646V2.026c0-.784-.742-.966-1.372-1.064L99.264.5zm-7.378 10.164l-.266-.308c2.66-1.61 4.606-4.634 4.914-7.378l-.882.084c-.714.07-.994.644-1.162.924-.742-.224-1.708-.658-2.31-1.036l.196-.42c.756.224 1.82.252 2.534.224.434-.014.798-.056 1.176-.084.336-.028.672-.14.84-.406l2.226.532c-1.302 4.032-3.794 6.244-7.266 7.868z"/></svg>