<svg xmlns="http://www.w3.org/2000/svg" width="185" height="19"><path fill="#2C4997" fill-rule="evenodd" d="M5.329 7.915l-.378-4.263c-.105-1.155-1.029-1.407-1.785-1.428l.168-.735 4.578.357.168.189s4.284-.042 4.62-.063c.588-.042 1.071-.294 1.302-.735l3.339.861-1.197 3.654 1.029.252-.168.945-8.862.084c-.063.294-.126.588-.231.882H5.329zm8.274-5.46l-5.523.063.105 4.032 4.473-.042c.525 0 .756-.231.777-.714l.168-3.339zm-1.008 7.056v.441c0 .84-.189 1.512-.294 1.848l1.113-.042c.42-.021.966.021 1.239-.399l2.751.525-.462 2.205.672.168-.168.84-8.715.168v1.974c0 .525.168.672.924.672.882 0 2.73-.063 3.969-.147.714-.042 1.239-.651 1.365-1.344l3.171.336-.21 1.449c.021 0-6.846.21-10.017.21-1.134 0-2.247-.021-2.247-1.302v-.945c0-.987-.672-1.26-1.449-1.281l.105-.651 3.885.231c.147.168.63.294 1.323.315.651.021 3.381-.021 4.053-.084.399-.042.546-.126.546-.546v-1.89s-4.137.063-4.851.105c-.924.063-1.365.504-1.575.945-1.029-.231-2.268-.651-3.15-1.092l.168-.546c1.113.147 2.436.189 3.843.189h1.029a32.823 32.823 0 0 1-.063-2.016v-.273c-1.05.021-1.953.063-2.562.105-1.071.084-1.596.714-1.953 1.323-1.239-.315-3.36-1.218-4.347-1.848l.336-.651c1.029.378 2.772.651 4.158.63 1.134.021 8.295-.105 10.437-.189 1.029-.042 1.722-.504 1.869-1.239l3.423.483-.21 1.533a39.25 39.25 0 0 0-4.116-.231c-1.113 0-2.541 0-3.99.021zM47.77 8.314l-.231 1.638-4.242.021v2.898c0 4.515-.483 6.006-.483 6.006h-2.268s-.084-1.155-.084-3.969v-1.953c-1.176.567-3.549 1.512-4.914 1.617-.777.063-1.323-.357-1.386-1.239-.798.504-2.121 1.092-3.276 1.281-.819.126-1.47-.399-1.47-1.407V5.584c0-.819-.819-1.134-1.89-1.197l.105-.693 3.612.231c.168.189.504.252.798.21.651-.084 1.029-.42 1.113-.966l1.89-.021v.861c.546.021 1.155-.021 1.827-.105.504-.063.798-.441.861-.861h1.785l-.105 1.26-2.646.294v8.379c0 .462.273.525.609.462.861-.147 2.163-.609 3.087-1.05V2.539c0-1.176-1.092-1.449-2.058-1.596l.147-.693 4.851.609a41.183 41.183 0 0 0-.105 2.751v5.712c.84-.042 1.428-.336 1.701-1.344l2.772.336zM32.02 4.849v8.001c0 .462.252.651.588.546a8.469 8.469 0 0 0 1.554-.672V4.576l-2.142.273zm36.75 3.465l-.231 1.638-4.242.021v2.898c0 4.515-.483 6.006-.483 6.006h-2.478s-.084-1.155-.084-3.969v-1.89a54.498 54.498 0 0 1-7.581 1.827c-1.911.315-3.192.084-3.192-1.533v-3.045c0-1.029-.672-1.197-1.617-1.323l.168-.714 4.158.231c.126.168.483.273.819.252l1.512-.063c.399-.021.525-.126.567-.588l.21-4.2s-1.428.063-1.827.105c-1.008.105-1.449.987-1.638 1.344-1.092-.357-2.604-1.05-3.465-1.554l.294-.63c1.134.357 2.289.378 4.305.378.462 0 .966-.021 1.575-.084.441-.042.966-.189 1.239-.63l2.856.546-.777 4.683.693.147-.147.861-5.838.21v4.305c0 .399.294.483.609.441 2.205-.252 4.872-.861 7.077-1.512V2.539c0-1.176-1.092-1.449-2.058-1.596l.147-.693 5.061.609a41.183 41.183 0 0 0-.105 2.751v5.712c.84-.042 1.428-.336 1.701-1.344l2.772.336zM87.166.25l5.082.609a30.843 30.843 0 0 0-.126 2.751v9.261c-.021 4.515-.525 6.006-.525 6.006H89.14s-.063-1.155-.063-3.969V2.539c0-1.176-1.113-1.449-2.058-1.596l.147-.693zm-3.864 2.562l-.609 1.365c2.373.378 3.801 1.953 3.801 4.809 0 3.318-1.932 4.998-5.061 4.998s-5.082-1.68-5.082-4.998c0-2.898 1.491-4.473 3.927-4.83.399-.63.252-1.092-.84-1.239l.189-.672 3.675.567zm-1.869 10.689c1.554 0 2.205-1.764 2.205-4.452 0-2.667-.672-4.473-2.205-4.473-1.575 0-2.205 1.806-2.205 4.473 0 2.688.63 4.452 2.205 4.452zm30.324-6.027v3.612c.84-.063 1.449-.336 1.701-1.344l2.772.315-.231 1.638-4.242.021v1.155c0 4.515-.483 6.006-.483 6.006h-2.457s-.084-1.155-.084-3.969l-.021-12.369c0-1.176-1.113-1.449-2.058-1.596l.168-.693 5.061.609a30.843 30.843 0 0 0-.126 2.751v3.234c.84-.042 1.449-.336 1.701-1.344l2.772.336-.231 1.617-4.242.021zm-8.526-4.662l-.609 1.344c2.415.378 3.78 1.953 3.78 4.83 0 3.318-1.848 4.998-4.998 4.998-3.15 0-5.019-1.68-5.019-4.998 0-2.898 1.407-4.452 3.822-4.83.399-.63.252-1.092-.84-1.239l.189-.672 3.675.567zm-1.827 10.689c1.554 0 2.142-1.764 2.142-4.452 0-2.667-.609-4.473-2.142-4.473-1.575 0-2.142 1.806-2.142 4.473 0 2.688.567 4.452 2.142 4.452zM129.166.25l5.061.609a30.843 30.843 0 0 0-.126 2.751v9.261c-.021 4.515-.504 6.006-.504 6.006h-2.478s-.063-1.155-.063-3.969V2.539c0-1.176-1.113-1.449-2.058-1.596l.168-.693zm-11.067 15.246l-.399-.462c3.99-2.415 6.909-6.951 7.371-11.067l-1.323.126c-1.071.105-1.491.966-1.743 1.386-1.113-.336-2.562-.987-3.465-1.554l.294-.63c1.134.336 2.73.378 3.801.336.651-.021 1.197-.084 1.764-.126.504-.042 1.008-.21 1.26-.609l3.339.798c-1.953 6.048-5.691 9.366-10.899 11.802zm45.591-7.182l-.231 1.638-4.242.021v2.898c0 4.515-.483 6.006-.483 6.006h-2.268s-.084-1.155-.084-3.969v-1.953c-1.176.567-3.549 1.512-4.914 1.617-.777.063-1.323-.357-1.386-1.239-.798.504-2.121 1.092-3.276 1.281-.819.126-1.47-.399-1.47-1.407V5.584c0-.819-.819-1.134-1.89-1.197l.105-.693 3.612.231c.168.189.504.252.798.21.651-.084 1.029-.42 1.113-.966l1.89-.021v.861c.546.021 1.155-.021 1.827-.105.504-.063.798-.441.861-.861h1.785l-.105 1.26-2.646.294v8.379c0 .462.273.525.609.462.861-.147 2.163-.609 3.087-1.05V2.539c0-1.176-1.092-1.449-2.058-1.596l.147-.693 4.851.609a41.183 41.183 0 0 0-.105 2.751v5.712c.84-.042 1.428-.336 1.701-1.344l2.772.336zm-15.75-3.465v8.001c0 .462.252.651.588.546a8.469 8.469 0 0 0 1.554-.672V4.576l-2.142.273zm36.75 3.465l-.231 1.638-4.242.021v2.898c0 4.515-.483 6.006-.483 6.006h-2.478s-.084-1.155-.084-3.969v-1.89a54.498 54.498 0 0 1-7.581 1.827c-1.911.315-3.192.084-3.192-1.533v-3.045c0-1.029-.672-1.197-1.617-1.323l.168-.714 4.158.231c.126.168.483.273.819.252l1.512-.063c.399-.021.525-.126.567-.588l.21-4.2s-1.428.063-1.827.105c-1.008.105-1.449.987-1.638 1.344-1.092-.357-2.604-1.05-3.465-1.554l.294-.63c1.134.357 2.289.378 4.305.378.462 0 .966-.021 1.575-.084.441-.042.966-.189 1.239-.63l2.856.546-.777 4.683.693.147-.147.861-5.838.21v4.305c0 .399.294.483.609.441 2.205-.252 4.872-.861 7.077-1.512V2.539c0-1.176-1.092-1.449-2.058-1.596l.147-.693 5.061.609a41.183 41.183 0 0 0-.105 2.751v5.712c.84-.042 1.428-.336 1.701-1.344l2.772.336z"/></svg>