<svg xmlns="http://www.w3.org/2000/svg" viewBox="0 0 51 51">
  <defs>
    <style>
      .cls-1{fill:#fffee6}
    </style>
  </defs>
  <g id="Layer_2" data-name="Layer 2">
    <g id="Layer_1-2" data-name="Layer 1">
      <path d="M25.5 6A19.5 19.5 0 1 1 6 25.5 19.53 19.53 0 0 1 25.5 6m0-6A25.5 25.5 0 1 0 51 25.5 25.5 25.5 0 0 0 25.5 0z" class="cls-1"/>
      <path d="M31.58 30.57C31.45 32.44 29.3 33 28.05 33a5.79 5.79 0 0 1-2.55-.78A4.16 4.16 0 0 1 23 33c-1.24 0-3.4-.57-3.53-2.44s-.7-12.09-.7-12.09v-.07a.85.85 0 0 1 .91-.88.87.87 0 0 1 .91.86s.57 10.27.7 12.09c0 .46 1 .72 1.71.72a2.53 2.53 0 0 0 1.62-.59v-7.1a.87.87 0 0 1 .91-.91.89.89 0 0 1 .91.91v7.1a2.61 2.61 0 0 0 1.61.59c.75 0 1.69-.26 1.71-.72.13-1.82.63-12.09.63-12.09a.87.87 0 0 1 .91-.86.85.85 0 0 1 .91.88v.08s-.5 10.27-.63 12.09z" class="cls-1"/>
    </g>
  </g>
</svg>
