<svg xmlns="http://www.w3.org/2000/svg" viewBox="0 0 51 51">
  <defs>
    <style>
      .cls-1{fill:#fffee6}
    </style>
  </defs>
  <g id="Layer_2" data-name="Layer 2">
    <g id="Layer_1-2" data-name="Layer 1">
      <path d="M25.5 6A19.5 19.5 0 1 1 6 25.5 19.53 19.53 0 0 1 25.5 6m0-6A25.5 25.5 0 1 0 51 25.5 25.5 25.5 0 0 0 25.5 0z" class="cls-1"/>
      <path d="M27.13 28.07h-4.68v4.16a.91.91 0 1 1-1.82 0v-13.7a.92.92 0 0 1 .91-.91h5.59a3.45 3.45 0 0 1 3.64 3.64v3.17a3.45 3.45 0 0 1-3.64 3.64zM29 21.26a1.65 1.65 0 0 0-1.82-1.82h-4.73v6.81h4.68A1.64 1.64 0 0 0 29 24.43z" class="cls-1"/>
    </g>
  </g>
</svg>
