<svg xmlns="http://www.w3.org/2000/svg" width="20" height="15"><path fill="#2C4997" fill-rule="evenodd" d="M0 14.667c.075-.652.128-1.297.225-1.934.2-1.318.544-2.59 1.099-3.792.707-1.53 1.73-2.738 3.123-3.598 1.47-.908 3.02-1.577 4.694-1.89.496-.094 1.003-.12 1.506-.174.038-.004.078 0 .129 0V0L20 6.553 10.787 13.1V9.856c-.03-.016-.04-.026-.05-.026-1.16-.006-2.322-.04-3.477.14-2.094.326-3.98 1.152-5.584 2.65a8.554 8.554 0 0 0-1.553 1.933c-.02.036-.044.07-.068.105-.001.003-.01.002-.055.009"/></svg>