<svg xmlns="http://www.w3.org/2000/svg" viewBox="0 0 51 51">
  <defs>
    <style>
      .cls-1{fill:#fff}
    </style>
  </defs>
  <g id="Layer_2" data-name="Layer 2">
    <g id="Layer_1-2" data-name="Layer 1">
      <path d="M25.5 6A19.5 19.5 0 1 1 6 25.5 19.53 19.53 0 0 1 25.5 6m0-6A25.5 25.5 0 1 0 51 25.5 25.5 25.5 0 0 0 25.5 0z" class="cls-1"/>
      <path d="M30.27 32.33h-8c-.62 0-1-.32-1-.75a1.12 1.12 0 0 1 .32-.72l6.28-6.8a4.26 4.26 0 0 0 1.5-3 1.58 1.58 0 0 0-1.75-1.75h-2.45A1.6 1.6 0 0 0 23.42 21a.83.83 0 0 1-.87.87.85.85 0 0 1-.88-.87 3.33 3.33 0 0 1 3.5-3.5h2.48a3.32 3.32 0 0 1 3.5 3.5 5.86 5.86 0 0 1-1.95 4.22l-4.93 5.32h6a.84.84 0 0 1 .88.88.85.85 0 0 1-.88.91z" class="cls-1"/>
    </g>
  </g>
</svg>
