<svg xmlns="http://www.w3.org/2000/svg" viewBox="0 0 51 51">
  <defs>
    <style>
      .cls-1{fill:#fff}
    </style>
  </defs>
  <g id="Layer_2" data-name="Layer 2">
    <g id="Layer_1-2" data-name="Layer 1">
      <path d="M25.5 6A19.5 19.5 0 1 1 6 25.5 19.53 19.53 0 0 1 25.5 6m0-6A25.5 25.5 0 1 0 51 25.5 25.5 25.5 0 0 0 25.5 0z" class="cls-1"/>
      <path d="M26.87 33.33h-2.75a3.32 3.32 0 0 1-3.5-3.5.84.84 0 0 1 .88-.83.85.85 0 0 1 .87.87 1.57 1.57 0 0 0 1.75 1.75h2.75a1.6 1.6 0 0 0 1.75-1.75v-2.5a1.6 1.6 0 0 0-1.75-1.74H25.4a.87.87 0 0 1-.88-.85 1.21 1.21 0 0 1 .33-.7l2.7-3.75h-5.9a.82.82 0 0 1-.9-.88.88.88 0 0 1 .87-.87h7.58a.87.87 0 0 1 .95.87 1.1 1.1 0 0 1-.25.7s-2 2.78-2.73 3.73a3.31 3.31 0 0 1 3.2 3.49v2.5a3.33 3.33 0 0 1-3.5 3.46z" class="cls-1"/>
    </g>
  </g>
</svg>
