<svg xmlns="http://www.w3.org/2000/svg" width="24" height="17"><g fill="#EAEAEA" fill-rule="evenodd"><path d="M11.984 13.153c-1.602 0-2.905-1.337-2.905-2.981s1.303-2.982 2.905-2.982c1.601 0 2.904 1.338 2.904 2.982 0 1.644-1.303 2.981-2.904 2.981m0-6.8c-2.051 0-3.72 1.713-3.72 3.819 0 2.105 1.669 3.818 3.72 3.818 2.05 0 3.72-1.713 3.72-3.818 0-2.106-1.67-3.819-3.72-3.819"/><path d="M20.06 5.293h2.46v-.616h-2.46v.616zm-8.076 9.769c-2.63 0-4.757-2.187-4.753-4.883.005-2.695 2.124-4.87 4.75-4.876 2.626-.005 4.756 2.179 4.757 4.878 0 2.702-2.122 4.882-4.754 4.88zM9.612 2.737h4.748V.901H9.612v1.836zm5.673.65V0H8.67v3.385H3.713v-.63H1.231V3.4H0v13.57h23.967V3.386h-8.682z"/></g></svg>