<svg xmlns="http://www.w3.org/2000/svg" id="Layer_1" data-name="Layer 1" viewBox="0 0 96 96"><defs><style>.cls-1{fill:#fff}</style></defs><path d="M52 2v50H2a2 2 0 0 0-2 2v40a2 2 0 0 0 2 2h64a2 2 0 0 0 2-2V68h26a2 2 0 0 0 2-2V2a2 2 0 0 0-2-2H54a2 2 0 0 0-2 2zm12 90H4V56h48v10a2 2 0 0 0 2 2h10zm-8-36h8v8h-8zM92 4v60H68V54a2 2 0 0 0-2-2H56V4z" class="cls-1"/><path d="M29.33 37.58a2 2 0 1 0-2.82-2.82L18 43.28c.3-16.37 8.75-24.81 25.14-25.09l-8.59 8.51a2 2 0 1 0 2.82 2.84l12-11.92a2 2 0 0 0 .63-1.41 2 2 0 0 0-.58-1.42l-12-12a2 2 0 0 0-2.83 2.83l8.56 8.56c-18.85.29-28.9 10.37-29.15 29.2l-8.58-8.62a2 2 0 0 0-2.84 2.82l11.92 12a2.08 2.08 0 0 0 1.42.58 2 2 0 0 0 1.41-.58z" class="cls-1"/></svg>