<svg xmlns="http://www.w3.org/2000/svg" width="24" height="20"><g fill="#4A6CE2" fill-rule="evenodd"><path d="M11.926 0c1.912.013 3.828.619 5.534 1.851a9.448 9.448 0 0 1 2.694 3.033c.426.75-.032 1.664-.901 1.827-.517.097-.962-.083-1.239-.529-.379-.61-.785-1.195-1.307-1.692-1.13-1.077-2.47-1.728-4.015-1.93-2.02-.264-3.841.243-5.444 1.5a6.824 6.824 0 0 0-1.702 1.955c-.206.355-.478.62-.898.674-.542.068-.98-.14-1.288-.586-.292-.422-.276-.87-.016-1.303C4.724 2.49 6.712.984 9.317.302 10.11.094 10.915.001 11.926 0M3.269 7.102l.68.29c-.056.233-.14.483-.171.74-.07.542-.149 1.087-.158 1.633-.03 1.887-.035 3.774-.047 5.662-.006 1.15-.007 2.3-.01 3.45 0 .027-.003.053-.005.079a3.178 3.178 0 0 1-3.414-2.28c-.28-.958-.155-1.876.408-2.711.56-.829 1.353-1.284 2.35-1.404 0-.322.002-.638 0-.953-.007-.715-.031-1.431-.02-2.145.01-.777.133-1.54.358-2.285.01-.03.021-.057.029-.076M19.91 18.977v-.465c-.009-2.467-.01-4.934-.031-7.401a35.464 35.464 0 0 0-.109-2.427c-.034-.438-.15-.87-.227-1.306l.633-.285c.057.202.12.411.171.623.247 1.006.27 2.033.26 3.061-.007.557-.004 1.113-.007 1.67 0 .077.014.121.108.134a3.109 3.109 0 0 1 2.628 2.375 3.253 3.253 0 0 1-1.987 3.812c-.466.183-.954.227-1.439.209M19.178 15.788c0 .983.002 1.965-.001 2.947 0 .566-.32 1.024-.828 1.201a1.242 1.242 0 0 1-1.664-1.134c-.008-.226-.003-.452-.003-.679v-5.282c0-.609.345-1.094.88-1.244.835-.236 1.61.338 1.615 1.204.006.996 0 1.992 0 2.987M6.79 15.773c0 .992.002 1.983 0 2.974-.002.54-.312.997-.788 1.174-.82.305-1.647-.23-1.703-1.105a1.844 1.844 0 0 1-.004-.135v-5.825c0-.599.314-1.069.827-1.244a1.243 1.243 0 0 1 1.666 1.175c.007.995.002 1.99.002 2.986"/></g></svg>