<svg xmlns="http://www.w3.org/2000/svg" viewBox="0 0 51 51">
  <defs>
    <style>
      .cls-1{fill:#fff}
    </style>
  </defs>
  <g id="Layer_2" data-name="Layer 2">
    <g id="Layer_1-2" data-name="Layer 1">
      <path d="M25.5 6A19.5 19.5 0 1 1 6 25.5 19.53 19.53 0 0 1 25.5 6m0-6A25.5 25.5 0 1 0 51 25.5 25.5 25.5 0 0 0 25.5 0z" class="cls-1"/>
      <path d="M29.55 32.33H23.3a.84.84 0 0 1-.88-.87.85.85 0 0 1 .88-.88h2.37V19.29h-2a.84.84 0 0 1-.87-.88.85.85 0 0 1 .87-.87h2.83a.88.88 0 0 1 .87.87v12.17h2.13a.84.84 0 0 1 .87.88.85.85 0 0 1-.82.87z" class="cls-1"/>
    </g>
  </g>
</svg>
