<svg xmlns="http://www.w3.org/2000/svg" viewBox="0 0 2031.25 1874.45"><defs><style>.cls-1{fill:#4a6ce2}</style></defs><g id="Layer_2" data-name="Layer 2"><g id="Layer_1-2" data-name="Layer 1"><path d="M800.78 707.68l-58.52 166.26h117.05l-58.53-166.26z" class="cls-1"/><path d="M1015.62 0C454.71 0 0 358.53 0 800.78c0 285.93 190.1 536.82 476.05 678.49-15.55 53.65-100 345.15-103.33 368 0 0-2 17.21 9.13 23.77s24.24 1.47 24.24 1.47c32-4.46 370.54-242.3 429.14-283.6a1285.37 1285.37 0 0 0 180.39 12.6c560.92 0 1015.63-358.51 1015.63-800.78S1576.54 0 1015.62 0zM512.7 1024.37c0 30.85-26.28 56-58.6 56s-58.59-25.1-58.59-56v-348.1h-91.43a57.38 57.38 0 1 1 0-114.75h300a57.38 57.38 0 1 1 0 114.75H512.7zm492.44 47.11a89.52 89.52 0 0 1-37.25 8.08c-24.43 0-43.12-9.92-48.76-25.88l-29-76H711.45l-29 76c-5.61 15.93-24.29 25.84-48.73 25.84a89.3 89.3 0 0 1-37.24-8.09c-16.16-7.45-31.68-27.93-13.89-83.2l140.16-368.9c9.87-28.06 39.86-57 78-57.84 38.27.86 68.26 29.78 78.16 57.89L1019 988.16c17.82 55.39 2.29 75.89-13.86 83.32zm296.13.3h-188c-31 0-56.15-24.1-56.15-53.71v-398c0-32.32 26.83-58.6 59.81-58.6s59.82 26.28 59.82 58.6v344.29h124.51c31 0 56.15 24.1 56.15 53.71s-25.17 53.71-56.14 53.71zm458.73-44.12a58.59 58.59 0 0 1-104.78 27.17l-137.47-182.07-20.33 20.34v127.84a58.69 58.69 0 0 1-58.61 58.62 58.65 58.65 0 0 1-58.6-58.59V620.12a58.6 58.6 0 1 1 117.19 0v125.93l163.48-163.47a45.49 45.49 0 0 1 32.5-13c14.63 0 29.32 6.31 40.32 17.31a57.75 57.75 0 0 1 17.23 37.11c.85 13.82-3.75 26.49-12.93 35.68l-133.53 133.5 144.23 191.07a58.08 58.08 0 0 1 11.3 43.41z" class="cls-1"/></g></g></svg>