<svg xmlns="http://www.w3.org/2000/svg" width="22" height="22"><g fill="#2C4997" fill-rule="evenodd"><path d="M10.545 14.554a3.968 3.968 0 0 1-3.963-3.963 3.968 3.968 0 0 1 3.963-3.963 3.968 3.968 0 0 1 3.963 3.963 3.968 3.968 0 0 1-3.963 3.963m0-8.7a4.742 4.742 0 0 0-4.736 4.737 4.742 4.742 0 0 0 4.736 4.736 4.742 4.742 0 0 0 4.736-4.736 4.742 4.742 0 0 0-4.736-4.736"/><path d="M10.525 17.179c-3.633-.005-6.572-2.96-6.568-6.601a6.583 6.583 0 0 1 6.595-6.574 6.584 6.584 0 0 1 6.58 6.6c-.003 3.64-2.958 6.58-6.607 6.575zm8.519-7.568c-.254-1.969-1.055-3.664-2.453-5.063-1.4-1.401-3.1-2.203-5.07-2.457V.048H9.56v2.044C7.59 2.348 5.894 3.15 4.496 4.55 3.1 5.948 2.3 7.644 2.045 9.612H0v1.96h2.045c.255 1.97 1.056 3.665 2.454 5.063 1.4 1.4 3.1 2.202 5.07 2.457v2.042h1.958V19.09c1.972-.257 3.667-1.059 5.065-2.458 1.398-1.399 2.197-3.094 2.452-5.061h2.046V9.61h-2.046z"/></g></svg>