<svg xmlns="http://www.w3.org/2000/svg" id="Layer_1" data-name="Layer 1" viewBox="0 0 40 39.22"><defs><style>.cls-1{fill:none;clip-rule:evenodd}</style><clipPath id="clip-path" transform="translate(-489 -550)"><path d="M524.5 560.41v19.22l-.36.48-12.82 3.7a1.39 1.39 0 0 1-.42.57 1.49 1.49 0 0 1-.95.34h-1.81a1.49 1.49 0 0 1-.94-.33 1.52 1.52 0 0 1-.42-.55l-12.92-3.73-.36-.48v-19.22l.64-.48 1.35.39v-3.14l.73-.44 2.43 1.28v-3l.83-.38 9.46 8.16 9.59-8.16.82.38v3l2.43-1.28.73.44v3.14l1.35-.39zm-9.27 2l5.38-1.56v-1.35zm-.7-1.86l2.92-1.54v-1zm-11.06 0l-2.92-2.51v1zm-.63 1.83l-5.45-2.89v1.36zm5.8 20.4h.9l-.09-17.88h-.9z" class="cls-1"/></clipPath><clipPath id="clip-path-2" transform="translate(-489 -550)"><path d="M524 560.41l-2 .58v-3.81l-3.16 1.67V555l-9.79 8.44h-.12l-9.78-8.44v3.85l-3.15-1.67V561l-2-.58v19.22l13.17 3.8a1 1 0 0 0 1 .79H510a1 1 0 0 0 1-.81l13-3.79zm-2.89.84l-10.2 3v-.1l10.23-5.42zm-3.11-1.92l-7.1 3.76L518 557zM500.05 557l7.1 6.12-7.1-3.76zm-3.16 1.71l10.3 5.46a.31.31 0 0 1 0 .08l-10.28-3zM510 583.23a.09.09 0 0 1-.09.09h-1.81a.09.09 0 0 1-.09-.09v-18.79a.1.1 0 0 1 .09-.1h1.9a.1.1 0 0 1 .09.1zM484 545h50v49.22h-50z" class="cls-1"/></clipPath></defs><g clip-path="url(#clip-path)"><path fill="#2c4997" d="M0 0h40v39.22H0z"/></g><g clip-path="url(#clip-path-2)"><path fill="#f2eee8" d="M510 585.22h-1.81a2 2 0 0 1-1.7-1L493 580.38v-21.3l2 .58v-4.14l3.16 1.67v-4.37l10.84 9.35 10.85-9.35v4.37l3.16-1.67v4.14l2-.58v21.3l-13.33 3.85a2 2 0 0 1-1.68.99zm-15-6.34l12.05 3.48v-16.13l-3.58 1.9 3.42-3-11.89-3.39zm16-12.6v16.05l12-3.45v-17.14l-11.89 3.44 3.42 3zm-13.15-5.78l.65.19-.65-.35zm22.22-.16l-.65.35.65-.19z" transform="translate(-489 -550)"/></g></svg>